<svg xmlns="http://www.w3.org/2000/svg" width="32" height="22"><path fill-rule="evenodd" fill="#008ED6" d="M32 18.515c0 1.657-.843 3.5-2.5 3.5h-26c-1.657 0-3.5-1.843-3.5-3.5v-16c0-.08.023-.15.032-.226a.982.982 0 0 1 .212-.835c.037-.043.087-.065.129-.1C.992.469 2.292.015 3.5.015h26c1.369 0 2.173.585 2.414 1.719.067.164.09.334.067.506.006.092.019.177.019.275v16zm-28.5 1.5h26c.552 0 .5-.948.5-1.5V4.188L16.655 14.865a1.003 1.003 0 0 1-1.31 0L2 4.188v14.327c0 .552.949 1.5 1.5 1.5zm25.5-18H3.5c-.277 0-.652-.013-.959.044L16 12.785l13.514-10.77H29z"/></svg>