<svg xmlns="http://www.w3.org/2000/svg" width="24" height="32"><path d="M12.125 1.99c6.829 0 9.885 5.12 9.885 10.2 0 4.48-3.19 10.42-9.483 17.66-.036.03-.086.07-.131.11-.046-.04-.1-.08-.133-.11l-.524-.6C7.633 24.54 2.01 18.09 2.01 12.19a10.293 10.293 0 0 1 10.115-10.2m0-2A12.328 12.328 0 0 0 .01 12.19c0 6.93 6.439 14.02 10.77 19a2.437 2.437 0 0 0 1.579.8h.076a2.429 2.429 0 0 0 1.575-.8c4.065-4.67 10-12.38 10-19S19.677-.01 12.125-.01zM12 8a4.02 4.02 0 0 1 .046 8.04A4.075 4.075 0 0 1 8 12a4 4 0 0 1 4-4m.046-1.96a6 6 0 1 0 6 6 6 6 0 0 0-6-6z" fill="#008ed6" fill-rule="evenodd"/></svg>