<svg xmlns="http://www.w3.org/2000/svg" width="15.937" height="15"><path d="M7.92 9.03a5.186 5.186 0 0 1-5-5.34V.5a.5.5 0 0 1 .5-.5h8.993a.5.5 0 0 1 .5.5v3.19A5.185 5.185 0 0 1 7.92 9.03zM3.92 1v2.69a4.01 4.01 0 1 0 7.993 0V1H3.92zm3.992 12.48a.5.5 0 0 1-.5-.5V8.84a.5.5 0 0 1 1 0v4.14a.5.5 0 0 1-.497.5zm2.045 0H5.915a.5.5 0 0 1-.5-.5.5.5 0 0 1 .5-.5h4.042a.5.5 0 0 1 .5.5.5.5 0 0 1-.497.5zM11.451 15h-7.03a.5.5 0 1 1 0-1h7.03a.5.5 0 0 1 .003 1zm1.076-9.5a.5.5 0 0 1-.5-.5.5.5 0 0 1 .5-.5 2.367 2.367 0 0 0 1.921-.71A2.717 2.717 0 0 0 14.913 2h-2.3a.5.5 0 0 1-.5-.5.5.5 0 0 1 .5-.5h2.75a.5.5 0 0 1 .49.4 4.016 4.016 0 0 1-.624 3.02A3.289 3.289 0 0 1 12.53 5.5zm-9.145 0a3.29 3.29 0 0 1-2.7-1.08A4.019 4.019 0 0 1 .059 1.4a.5.5 0 0 1 .49-.4h2.75a.5.5 0 0 1 .5.5.5.5 0 0 1-.5.5h-2.3a2.711 2.711 0 0 0 .465 1.79 2.366 2.366 0 0 0 1.921.71.5.5 0 0 1 .5.5.5.5 0 0 1-.5.5z" fill="#008ed6" fill-rule="evenodd"/></svg>