<svg xmlns="http://www.w3.org/2000/svg" width="32.031" height="32"><path d="M19.039 31.984c-9.089 0-9.159-.376-10.285-1.224-.6-.45-1.723-.76-5.838-1.028a1.074 1.074 0 0 1-.773-.365A14.491 14.491 0 0 1 0 21.459c0-4.732 1.471-6.89 1.534-6.99a1 1 0 0 1 .848-.47c3.378 0 8.062-4.313 11.211-11.841C14.137.858 14.25 0 16.25 0a3.878 3.878 0 0 1 3.042 1.859c1.291 2.135.636 6.721.029 9.171 2.062-.016 5.8-.045 7.572-.045 2.472 0 4.106 1.474 4.156 3.628a5.86 5.86 0 0 1-.283 2.089 3.7 3.7 0 0 1 1.276 2.414 4.288 4.288 0 0 1-1.42 2.989 4.154 4.154 0 0 1 .366 1.547 4.111 4.111 0 0 1-2 3.055 5.8 5.8 0 0 1-.026 1.833c-.531 2.46-4.131 3.444-9.923 3.444zM3.447 27.7c3.584.3 5.5.7 6.51 1.459.783.589.662.822 9.082.822 2.568 0 7.59-.107 7.975-1.87a1.8 1.8 0 0 0-.593-1.4 1.015 1.015 0 0 1 .519-1.306c.008 0 2-.719 2.05-1.835a1.568 1.568 0 0 0-.472-1.16 1.019 1.019 0 0 1 .257-1.38 2.59 2.59 0 0 0 1.267-1.857 2.2 2.2 0 0 0-1.177-1.466 1.007 1.007 0 0 1-.306-1.482 3.35 3.35 0 0 0 .49-1.566c-.037-1.623-1.782-1.674-2.156-1.674-2.522 0-9 .026-9 .026a.986.986 0 0 1-.839-.443 1.055 1.055 0 0 1-.092-.944c.977-2.814 1.523-7.228.617-8.735A1.217 1.217 0 0 0 16.251 2a1.149 1.149 0 0 0-.813.929c-3.343 8-8.334 12.619-12.422 13.037a12.923 12.923 0 0 0-1.015 5.493A13.3 13.3 0 0 0 3.447 27.7z" fill="#008ed6" fill-rule="evenodd"/></svg>