<svg xmlns="http://www.w3.org/2000/svg" width="32" height="32"><path d="M30.016 12.971l-2.567-.57a11.754 11.754 0 0 0-.763-1.841l1.389-2.314a2.3 2.3 0 0 0 0-2.828L26.66 4a2.346 2.346 0 0 0-2.894-.089l-2.251 1.434a11.941 11.941 0 0 0-1.83-.767l-.576-2.6A2.347 2.347 0 0 0 17 0h-2a2.294 2.294 0 0 0-2 2l-.642 2.566a11.939 11.939 0 0 0-1.947.819l-2.308-1.47a2.348 2.348 0 0 0-2.895.089L3.794 5.418a2.294 2.294 0 0 0 0 2.828l1.461 2.435a11.936 11.936 0 0 0-.705 1.72l-2.566.57A2.345 2.345 0 0 0 0 15.08v2a2.3 2.3 0 0 0 2 2l2.6.649a11.7 11.7 0 0 0 .658 1.593l-1.463 2.437a2.3 2.3 0 0 0 0 2.829L5.209 28a2.346 2.346 0 0 0 2.894.088l2.313-1.473a11.907 11.907 0 0 0 1.959.823l.641 2.56a2.293 2.293 0 0 0 2 2h2a2.347 2.347 0 0 0 2.109-1.985l.577-2.6a11.855 11.855 0 0 0 1.808-.758l2.256 1.437A2.346 2.346 0 0 0 26.66 28l1.415-1.414a2.3 2.3 0 0 0 0-2.829l-1.39-2.316a11.912 11.912 0 0 0 .716-1.714l2.6-.649a2.3 2.3 0 0 0 2-2v-2a2.345 2.345 0 0 0-1.985-2.107zM30 16.939a1.312 1.312 0 0 1-.448.192l-3.708.925-.344 1.051a10.144 10.144 0 0 1-.6 1.429l-.5.986 1.959 3.267a1.4 1.4 0 0 1 .2.484l-1.315 1.314a1.6 1.6 0 0 1-.341-.14l-3.292-2.1-1.023.53a9.85 9.85 0 0 1-1.5.63l-1.09.353-.824 3.723a.769.769 0 0 1-.217.417h-1.8a1.3 1.3 0 0 1-.191-.448l-.921-3.681-1.065-.338a9.786 9.786 0 0 1-1.63-.685l-1.028-.543-3.292 2.1a.754.754 0 0 1-.409.142l-1.312-1.276a1.337 1.337 0 0 1 .181-.449l2.046-3.408-.487-.98a9.857 9.857 0 0 1-.548-1.324l-.343-1.052-3.672-.918a1.394 1.394 0 0 1-.485-.2v-1.86a2.329 2.329 0 0 1 .335-.142l3.773-.836.346-1.1a10.055 10.055 0 0 1 .588-1.431l.487-.98-2.024-3.373a1.4 1.4 0 0 1-.2-.484L6.62 5.419a1.574 1.574 0 0 1 .34.14l3.354 2.138 1.027-.542a10.029 10.029 0 0 1 1.622-.682l1.063-.339.912-3.648a1.411 1.411 0 0 1 .2-.485H17c-.014.02.115.2.142.339l.839 3.794 1.089.352a9.973 9.973 0 0 1 1.523.639l1.023.532 3.224-2.054a.756.756 0 0 1 .409-.143l1.312 1.276a1.312 1.312 0 0 1-.181.45l-1.98 3.3.5.987A9.59 9.59 0 0 1 25.54 13l.346 1.1 3.7.821a.7.7 0 0 1 .435.241zm-13.988 5.07a6.01 6.01 0 1 1 6.024-6.01 6.024 6.024 0 0 1-6.023 6.01zM16 12a4 4 0 1 0 4 4 4 4 0 0 0-4-4z" fill="#008ed6" fill-rule="evenodd"/></svg>