<svg xmlns="http://www.w3.org/2000/svg" width="16" height="14.88"><path d="M11.924 14.87a.5.5 0 0 1-.262-.92 6.99 6.99 0 1 0-7.372-.03.5.5 0 0 1 .158.69.51.51 0 0 1-.689.16 7.993 7.993 0 1 1 8.427.03.5.5 0 0 1-.262.07zm3.412-6.37h-.914a.5.5 0 0 1 0-1h.914a.5.5 0 0 1 0 1zM1.585 8.49H.669a.5.5 0 0 1-.5-.5.5.5 0 0 1 .5-.5h.914a.5.5 0 0 1 .5.5.5.5 0 0 1-.498.5zm6.4-6.34a.5.5 0 0 1-.5-.5V.73a.5.5 0 1 1 1 0v.92a.5.5 0 0 1-.496.5zm-3.167.78a.5.5 0 0 1-.434-.25l-.457-.79a.5.5 0 1 1 .866-.5l.457.79a.5.5 0 0 1-.183.68.455.455 0 0 1-.245.07zm9.531 9.2a.567.567 0 0 1-.25-.07l-.792-.46a.5.5 0 1 1 .5-.86l.792.45a.508.508 0 0 1 .184.69.5.5 0 0 1-.43.25zM2.475 5.27a.461.461 0 0 1-.25-.07l-.792-.45a.509.509 0 0 1-.183-.69.5.5 0 0 1 .683-.18l.792.46a.5.5 0 0 1 .184.68.5.5 0 0 1-.43.25zm-.791 6.86a.5.5 0 0 1-.433-.25.509.509 0 0 1 .183-.69l.791-.45a.5.5 0 1 1 .5.86l-.791.46a.567.567 0 0 1-.246.07zm11.874-6.86a.5.5 0 0 1-.25-.93l.791-.46a.5.5 0 0 1 .684.18.508.508 0 0 1-.184.69l-.791.45a.461.461 0 0 1-.246.07zm-2.343-2.34a.455.455 0 0 1-.249-.07.5.5 0 0 1-.183-.68l.457-.79a.5.5 0 1 1 .866.5l-.457.79a.5.5 0 0 1-.43.25zM6.983 8a1 1 0 1 0 1-1 1 1 0 0 0-.996 1zm4.885-2.25a.493.493 0 0 1-.183.68l-3.464 2a.5.5 0 1 1-.5-.86l3.464-2a.5.5 0 0 1 .684.18z" fill="#008ed6" fill-rule="evenodd"/></svg>